<svg baseProfile="tiny" xmlns="http://www.w3.org/2000/svg" viewBox="0 0 169.01 28"><defs/><path fill="#FFF" d="M66.4 8.5h-1.3c-.3 0-.5.3-.5.5v1.9c0 .3.3.5.5.5h1.3c.3 0 .5-.3.5-.5V9c0-.3-.2-.5-.5-.5zM66.3 13.4H65c-.3 0-.5.3-.5.5v11.9c0 .3.3.5.5.5h1.3c.3 0 .5-.3.5-.5V13.9c0-.4-.2-.5-.5-.5z"/><path fill-rule="evenodd" fill="#FFF" d="M75.8 13.2h-1.7c-1.8 0-4.5.6-4.5 4.2v8.4c0 .3.2.5.4.5h1.4c.3 0 .4-.3.4-.5v-8.4c0-1.8.4-2.5 2.2-2.5h1.8c1.7 0 2.2.7 2.2 2.5v8.4c0 .3.2.5.4.5h1.4c.3 0 .5-.3.5-.5v-8.4c0-3.6-2.7-4.2-4.5-4.2zM88.8 13.4h-4v-2.5c0-.2-.2-.4-.4-.4h-.1l-1.3.2c-.3 0-.5.2-.5.4v12.1c0 2.5 1.4 3.3 3.8 3.3.9 0 1.9-.1 2.5-.2.4-.1.5-.2.5-.5V25c0-.3-.2-.3-.5-.3h-2.1c-1.4 0-1.9-.3-1.9-1.6V15h4c.3 0 .5-.2.5-.4v-.8c0-.3-.2-.4-.5-.4zM95.9 13.1c-3.6 0-5.7 2.5-5.7 5.8v1.6c0 4.6 3 5.8 6 5.8 1.7 0 3-.2 4.4-.4.4 0 .5-.2.5-.5v-.8c0-.3-.3-.3-.4-.3h-.2c-1.2.2-2.9.3-4.4.3-2.4 0-3.7-1.3-3.7-4v-.1h8.6c.3 0 .5-.2.6-.6v-1c0-3.3-1.9-5.8-5.7-5.8zm3.3 5.7l-6.8.1v-.1c0-2.5 1.3-3.8 3.5-3.8s3.4 1.2 3.3 3.8zM109.7 13.6c0-.3-.2-.3-.5-.3-2.1 0-3.9.1-5.3.7-.3.1-.4.3-.4.5v11.4c0 .3.2.5.4.5h1.4c.3 0 .4-.3.4-.5V15.3c.9-.2 1.8-.3 3.6-.3.5 0 .6-.2.5-.3v-1.1h-.1zM122.3 9c-.4-.1-2.1-.3-4.1-.3-3.1 0-7.3 1.3-7.3 7.2v3.5c0 5.8 4.2 7.2 7.3 7.2 1.9 0 3.6-.3 4.1-.3.3-.2.6-.3.6-.5v-1.6c0-.3-.1-.5-.5-.5h-.1c-.8.1-2.6.2-4 .2-2.2 0-3.7-1.1-3.7-4.4V16c0-3.4 1.6-4.4 3.7-4.4 1.4 0 3 .1 4 .2h.1c.3 0 .5-.3.5-.5V9.5c0-.3-.3-.4-.6-.5zM127.5 8.4h-2.4c-.3 0-.5.3-.5.5v16.9c0 .3.3.5.5.5h2.4c.3 0 .5-.3.5-.5V8.9c0-.4-.2-.5-.5-.5zM136 12.9c-4 0-6.1 2.5-6.1 5.8v1.9c0 3.4 2 5.8 6.1 5.8s6.1-2.5 6.1-5.8v-1.9c0-3.3-2-5.8-6.1-5.8zm2.8 7.7c0 1.9-.9 3.1-2.7 3.1-1.8 0-2.7-1.2-2.7-3.1v-1.9c0-1.9.9-3.1 2.7-3.1 1.8 0 2.7 1.2 2.7 3.1v1.9zM155 13h-2.4c-.3 0-.5.3-.5.5v7.3c0 2.4-.9 3-2.5 3h-.2c-1.5 0-2.5-.5-2.5-3v-7.3c0-.3-.3-.5-.5-.5H144c-.3 0-.5.3-.5.5v7.3c0 5.1 4.3 5.7 5.8 5.7h.2c1.5 0 5.8-.6 5.8-5.7v-7.3c.3-.2 0-.5-.3-.5zM168.6 8.4h-2.4c-.3 0-.5.3-.5.5V13c-.9-.1-1.9-.2-2.5-.2-4.1 0-6.1 2.3-6.1 5.9v1.8c0 3.7 1.9 5.9 6.1 5.9 1.7 0 3.6-.3 5.2-.6.6-.2.7-.3.7-.7V8.9c0-.4-.3-.5-.5-.5zm-2.9 15.4c-.5.1-1.5.2-2.5.2-2.2 0-2.7-1.4-2.7-3.4v-1.8c0-1.9.5-3.4 2.7-3.4.6 0 1.8.1 2.5.2v8.2z"/><path fill="#FFD04D" d="M48.7 12.3h-.8v-.8C48 9 47.3 6.8 46 4.9 43.9 2.1 40.6.5 36.9.5c-1.3 0-2.5.2-3.6.6-3.2 1-5.7 3.3-6.9 6.4l-.2.4-.4.1c-2 .3-3.8 1.4-5.2 2.8-1.3 1.4-2 3-2.3 5.1-.1.5-.1 1-.1 1.7 0 1.1 0 2.2-.3 3-.3.6-.6 1.1-1.1 1.6s-1 .8-1.6 1.1c-.6.3-1.2.3-1.8.3H6.1c-.4 0-.8-.1-1.3-.3-1.6-.7-2.4-2.5-1.7-4.1C4 17 6.2 16.9 8 16.9h.3c.8-1.2 1.7-2.3 3-2.8.6.9 1.6 1.4 2.7 1.4 1.9 0 3.4-1.5 3.4-3.3-.1-1.9-1.5-3.4-3.4-3.4-1.5 0-2.8 1.1-3.2 2.5-1.8.6-3.1 1.7-4 3.1l-.2.2h-.1c-.9-.1-1.9.1-2.8.4-1.4.6-2.6 1.8-3.2 3.2-.6 1.4-.6 3 0 4.6.9 2.2 3 3.6 5.5 3.6h7.3c1 0 2-.2 3-.6.9-.4 1.8-.9 2.5-1.7.9-.9 1.5-1.9 1.9-3.1.3-1 .3-1.8.3-2.6 0-.7 0-1.4.2-2.3.3-1.6 1.1-3 2.5-4 1.9-1.5 4.1-1.7 7.4-.6L32 9c-.4-.2-.7-.3-1.2-.4-.3-.1-.7-.3-1-.3l-.4-.2.4-.8c1.5-2.5 4.3-4.1 7.3-4.1.3 0 .8 0 1.1.1 4.1.6 7.2 4.1 7.2 8.3 0 .9-.2 1.8-.4 2.7-.1.4-.4 1-.8 1.4l2.4 1.4c.3-.3.5-.8.7-1l.1-.2.3-.3c.4-.2.8-.2 1.3-.2 2.2 0 4.1 1.8 4.1 4.1 0 2.2-1.8 4.1-4.1 4.1H28.2c-.2-1.6-1.6-2.9-3.3-2.9-1.9 0-3.3 1.5-3.3 3.4s1.5 3.3 3.3 3.3c1.1 0 2.1-.5 2.7-1.4h21.3c2.1 0 3.9-.7 5.2-2 1.3-1.4 2-3.2 1.9-5.2-.1-3.7-3.3-6.7-7.3-6.5zm-34.6-1.8c1 0 1.8.8 1.8 1.8 0 .9-.8 1.8-1.8 1.8-.9 0-1.8-.8-1.8-1.8s.8-1.8 1.8-1.8zm10.8 15.6c-.9 0-1.8-.8-1.8-1.8 0-.9.8-1.8 1.8-1.8s1.9.8 1.8 1.8c0 .9-.8 1.8-1.8 1.8z"/></svg>
